<?xml version="1.0" encoding="UTF-8" standalone="no"?>
<!DOCTYPE svg PUBLIC "-//W3C//DTD SVG 1.1//EN"
 "http://www.w3.org/Graphics/SVG/1.1/DTD/svg11.dtd">
<!-- Generated by graphviz version 2.40.1 (20161225.0304)
 -->
<!-- Title: state transitions Pages: 1 -->
<svg width="997pt" height="352pt"
 viewBox="0.00 0.00 996.93 352.00" xmlns="http://www.w3.org/2000/svg" xmlns:xlink="http://www.w3.org/1999/xlink">
<g id="graph0" class="graph" transform="scale(1 1) rotate(0) translate(4 348)">
<title>state transitions</title>
<polygon fill="#ffffff" stroke="transparent" points="-4,4 -4,-348 992.926,-348 992.926,4 -4,4"/>
<g id="clust1" class="cluster state regular">
<title>cluster_NEXT_STATE</title>
<path fill="none" stroke="#000000" stroke-width="2" d="M20,-8C20,-8 815,-8 815,-8 821,-8 827,-14 827,-20 827,-20 827,-324 827,-324 827,-330 821,-336 815,-336 815,-336 20,-336 20,-336 14,-336 8,-330 8,-324 8,-324 8,-20 8,-20 8,-14 14,-8 20,-8"/>
<text text-anchor="start" x="379.33" y="-317.2" font-family="Helvetica,sans-Serif" font-size="12.00" fill="#000000">NEXT_STATE</text>
</g>
<!-- NEXT_STATE -->
<!-- IDLE -->
<g id="node2" class="node state regular">
<title>IDLE</title>
<polygon fill="#ffffff" fill-opacity="0.003922" stroke="transparent" stroke-width="2" points="446,-298 390,-298 390,-262 446,-262 446,-298"/>
<text text-anchor="start" x="404.6644" y="-276.2" font-family="Helvetica,sans-Serif" font-size="12.00" fill="#000000">IDLE</text>
<path fill="none" stroke="#000000" stroke-width="2" d="M402.3333,-263C402.3333,-263 433.6667,-263 433.6667,-263 439.3333,-263 445,-268.6667 445,-274.3333 445,-274.3333 445,-285.6667 445,-285.6667 445,-291.3333 439.3333,-297 433.6667,-297 433.6667,-297 402.3333,-297 402.3333,-297 396.6667,-297 391,-291.3333 391,-285.6667 391,-285.6667 391,-274.3333 391,-274.3333 391,-268.6667 396.6667,-263 402.3333,-263"/>
</g>
<!-- COOL_ON -->
<g id="node3" class="node state regular">
<title>COOL_ON</title>
<polygon fill="#ffffff" fill-opacity="0.003922" stroke="transparent" stroke-width="2" points="174,-216 94,-216 94,-180 174,-180 174,-216"/>
<text text-anchor="start" x="104.6642" y="-194.2" font-family="Helvetica,sans-Serif" font-size="12.00" fill="#000000">COOL_ON</text>
<path fill="none" stroke="#000000" stroke-width="2" d="M106.3333,-181C106.3333,-181 161.6667,-181 161.6667,-181 167.3333,-181 173,-186.6667 173,-192.3333 173,-192.3333 173,-203.6667 173,-203.6667 173,-209.3333 167.3333,-215 161.6667,-215 161.6667,-215 106.3333,-215 106.3333,-215 100.6667,-215 95,-209.3333 95,-203.6667 95,-203.6667 95,-192.3333 95,-192.3333 95,-186.6667 100.6667,-181 106.3333,-181"/>
</g>
<!-- IDLE&#45;&gt;COOL_ON -->
<g id="edge1" class="edge transition">
<title>IDLE&#45;&gt;COOL_ON</title>
<path fill="none" stroke="#000000" d="M389.9817,-279.2174C312.4471,-276.765 99.3861,-267.977 78.657,-245 70.9283,-236.4331 75.8012,-227.984 85.2525,-220.6635"/>
<polygon fill="#000000" stroke="#000000" points="87.2844,-223.5154 93.6605,-215.0539 83.3995,-217.6923 87.2844,-223.5154"/>
<text text-anchor="start" x="78" y="-236" font-family="Helvetica,sans-Serif" font-size="10.00" fill="#000000">COOL_REG = &#39;1&#39; and CURRENT_TEMP_REG &gt; DESIRED_TEMP_REG &#160;&#160;</text>
</g>
<!-- HEAT_ON -->
<g id="node6" class="node state regular">
<title>HEAT_ON</title>
<polygon fill="#ffffff" fill-opacity="0.003922" stroke="transparent" stroke-width="2" points="650,-216 572,-216 572,-180 650,-180 650,-216"/>
<text text-anchor="start" x="582.6662" y="-194.2" font-family="Helvetica,sans-Serif" font-size="12.00" fill="#000000">HEAT_ON</text>
<path fill="none" stroke="#000000" stroke-width="2" d="M584.3333,-181C584.3333,-181 637.6667,-181 637.6667,-181 643.3333,-181 649,-186.6667 649,-192.3333 649,-192.3333 649,-203.6667 649,-203.6667 649,-209.3333 643.3333,-215 637.6667,-215 637.6667,-215 584.3333,-215 584.3333,-215 578.6667,-215 573,-209.3333 573,-203.6667 573,-203.6667 573,-192.3333 573,-192.3333 573,-186.6667 578.6667,-181 584.3333,-181"/>
</g>
<!-- IDLE&#45;&gt;HEAT_ON -->
<g id="edge2" class="edge transition">
<title>IDLE&#45;&gt;HEAT_ON</title>
<path fill="none" stroke="#000000" d="M437.3647,-261.9824C449.0135,-252.0599 464.5953,-240.3099 480.327,-233 511.1946,-218.6571 522.1727,-224.9942 555,-216 557.413,-215.3389 559.8771,-214.6394 562.3604,-213.915"/>
<polygon fill="#000000" stroke="#000000" points="563.3979,-217.2579 571.9659,-211.0258 561.3816,-210.5546 563.3979,-217.2579"/>
<text text-anchor="start" x="480" y="-236" font-family="Helvetica,sans-Serif" font-size="10.00" fill="#000000">HEAT_REG = &#39;1&#39; and CURRENT_TEMP_REG &gt; DESIRED_TEMP_REG &#160;&#160;</text>
</g>
<!-- AC_NOW_READY -->
<g id="node4" class="node state regular">
<title>AC_NOW_READY</title>
<polygon fill="#ffffff" fill-opacity="0.003922" stroke="transparent" stroke-width="2" points="205,-134 83,-134 83,-98 205,-98 205,-134"/>
<text text-anchor="start" x="93.6672" y="-112.2" font-family="Helvetica,sans-Serif" font-size="12.00" fill="#000000">AC_NOW_READY</text>
<path fill="none" stroke="#000000" stroke-width="2" d="M95.3333,-99C95.3333,-99 192.6667,-99 192.6667,-99 198.3333,-99 204,-104.6667 204,-110.3333 204,-110.3333 204,-121.6667 204,-121.6667 204,-127.3333 198.3333,-133 192.6667,-133 192.6667,-133 95.3333,-133 95.3333,-133 89.6667,-133 84,-127.3333 84,-121.6667 84,-121.6667 84,-110.3333 84,-110.3333 84,-104.6667 89.6667,-99 95.3333,-99"/>
</g>
<!-- COOL_ON&#45;&gt;AC_NOW_READY -->
<g id="edge3" class="edge transition">
<title>COOL_ON&#45;&gt;AC_NOW_READY</title>
<path fill="none" stroke="#000000" d="M136.2193,-179.8015C137.4881,-169.3976 139.1071,-156.1215 140.5394,-144.3768"/>
<polygon fill="#000000" stroke="#000000" points="144.0505,-144.4978 141.7869,-134.1476 137.102,-143.6503 144.0505,-144.4978"/>
<text text-anchor="start" x="139" y="-154" font-family="Helvetica,sans-Serif" font-size="10.00" fill="#000000">AC_READY = &#39;1&#39; &#160;&#160;</text>
</g>
<!-- AC_DONE -->
<g id="node5" class="node state regular">
<title>AC_DONE</title>
<polygon fill="#ffffff" fill-opacity="0.003922" stroke="transparent" stroke-width="2" points="108.5,-52 29.5,-52 29.5,-16 108.5,-16 108.5,-52"/>
<text text-anchor="start" x="40.5002" y="-30.2" font-family="Helvetica,sans-Serif" font-size="12.00" fill="#000000">AC_DONE</text>
<path fill="none" stroke="#000000" stroke-width="2" d="M41.8333,-17C41.8333,-17 96.1667,-17 96.1667,-17 101.8333,-17 107.5,-22.6667 107.5,-28.3333 107.5,-28.3333 107.5,-39.6667 107.5,-39.6667 107.5,-45.3333 101.8333,-51 96.1667,-51 96.1667,-51 41.8333,-51 41.8333,-51 36.1667,-51 30.5,-45.3333 30.5,-39.6667 30.5,-39.6667 30.5,-28.3333 30.5,-28.3333 30.5,-22.6667 36.1667,-17 41.8333,-17"/>
</g>
<!-- AC_NOW_READY&#45;&gt;AC_DONE -->
<g id="edge4" class="edge transition">
<title>AC_NOW_READY&#45;&gt;AC_DONE</title>
<path fill="none" stroke="#000000" d="M117.8757,-97.7077C111.54,-92.6684 105.0347,-86.942 99.607,-81 94.1891,-75.0687 89.0845,-68.0791 84.6539,-61.3293"/>
<polygon fill="#000000" stroke="#000000" points="87.3354,-59.0164 79.064,-52.3956 81.4013,-62.7294 87.3354,-59.0164"/>
<text text-anchor="start" x="99" y="-72" font-family="Helvetica,sans-Serif" font-size="10.00" fill="#000000">COOL_REG = &#39;0&#39; or CURRENT_TEMP_REG &lt;= DESIRED_TEMP_REG &#160;&#160;</text>
</g>
<!-- AC_DONE&#45;&gt;IDLE -->
<g id="edge5" class="edge transition">
<title>AC_DONE&#45;&gt;IDLE</title>
<path fill="none" stroke="#000000" d="M47.4695,-52.3986C42.1796,-58.8557 38,-66.6117 38,-75 38,-142.5 38,-142.5 38,-142.5 38,-190.0934 36.9757,-209.7924 69,-245 89.6009,-267.6487 293.2215,-276.3126 379.5899,-278.9866"/>
<polygon fill="#000000" stroke="#000000" points="379.6631,-282.4902 389.7632,-279.2905 379.8722,-275.4933 379.6631,-282.4902"/>
<text text-anchor="start" x="39" y="-154" font-family="Helvetica,sans-Serif" font-size="10.00" fill="#000000">AC_READY = &#39;0&#39; &#160;&#160;</text>
</g>
<!-- FURNACE_NOW_HOT -->
<g id="node7" class="node state regular">
<title>FURNACE_NOW_HOT</title>
<polygon fill="#ffffff" fill-opacity="0.003922" stroke="transparent" stroke-width="2" points="531.5,-134 384.5,-134 384.5,-98 531.5,-98 531.5,-134"/>
<text text-anchor="start" x="395.509" y="-112.2" font-family="Helvetica,sans-Serif" font-size="12.00" fill="#000000">FURNACE_NOW_HOT</text>
<path fill="none" stroke="#000000" stroke-width="2" d="M396.8333,-99C396.8333,-99 519.1667,-99 519.1667,-99 524.8333,-99 530.5,-104.6667 530.5,-110.3333 530.5,-110.3333 530.5,-121.6667 530.5,-121.6667 530.5,-127.3333 524.8333,-133 519.1667,-133 519.1667,-133 396.8333,-133 396.8333,-133 391.1667,-133 385.5,-127.3333 385.5,-121.6667 385.5,-121.6667 385.5,-110.3333 385.5,-110.3333 385.5,-104.6667 391.1667,-99 396.8333,-99"/>
</g>
<!-- HEAT_ON&#45;&gt;FURNACE_NOW_HOT -->
<g id="edge6" class="edge transition">
<title>HEAT_ON&#45;&gt;FURNACE_NOW_HOT</title>
<path fill="none" stroke="#000000" d="M571.8859,-183.2919C557.7991,-177.5283 541.9618,-170.4987 528.074,-163 515.5428,-156.2338 502.4233,-147.8284 490.9697,-140.0047"/>
<polygon fill="#000000" stroke="#000000" points="492.7827,-137.0025 482.573,-134.1719 488.7892,-142.7516 492.7827,-137.0025"/>
<text text-anchor="start" x="528" y="-154" font-family="Helvetica,sans-Serif" font-size="10.00" fill="#000000">FURNACE_HOT_REG = &#39;1&#39; &#160;&#160;</text>
</g>
<!-- FURNACE_NOW_HOT&#45;&gt;IDLE -->
<g id="edge8" class="edge transition">
<title>FURNACE_NOW_HOT&#45;&gt;IDLE</title>
<path fill="none" stroke="#000000" d="M429.3554,-134.0711C422.9438,-140.3255 418,-148.05 418,-157 418,-239 418,-239 418,-239 418,-243.0484 418,-247.3216 418,-251.52"/>
<polygon fill="#000000" stroke="#000000" points="414.5001,-251.6312 418,-261.6312 421.5001,-251.6313 414.5001,-251.6312"/>
<text text-anchor="start" x="418" y="-195" font-family="Helvetica,sans-Serif" font-size="10.00" fill="#000000">FURNACE_HOT_REG = &#39;0&#39; &#160;&#160;</text>
</g>
<!-- FURNACE_COOL -->
<g id="node8" class="node state regular">
<title>FURNACE_COOL</title>
<polygon fill="#ffffff" fill-opacity="0.003922" stroke="transparent" stroke-width="2" points="669,-52 549,-52 549,-16 669,-16 669,-52"/>
<text text-anchor="start" x="559.6692" y="-30.2" font-family="Helvetica,sans-Serif" font-size="12.00" fill="#000000">FURNACE_COOL</text>
<path fill="none" stroke="#000000" stroke-width="2" d="M561.3333,-17C561.3333,-17 656.6667,-17 656.6667,-17 662.3333,-17 668,-22.6667 668,-28.3333 668,-28.3333 668,-39.6667 668,-39.6667 668,-45.3333 662.3333,-51 656.6667,-51 656.6667,-51 561.3333,-51 561.3333,-51 555.6667,-51 550,-45.3333 550,-39.6667 550,-39.6667 550,-28.3333 550,-28.3333 550,-22.6667 555.6667,-17 561.3333,-17"/>
</g>
<!-- FURNACE_NOW_HOT&#45;&gt;FURNACE_COOL -->
<g id="edge7" class="edge transition">
<title>FURNACE_NOW_HOT&#45;&gt;FURNACE_COOL</title>
<path fill="none" stroke="#000000" d="M460.5674,-97.6461C462.8557,-87.8646 467.1677,-76.3639 475.277,-69 485.2058,-59.9839 511.9564,-52.1687 538.9468,-46.2247"/>
<polygon fill="#000000" stroke="#000000" points="539.8142,-49.6186 548.8708,-44.1206 538.3623,-42.7709 539.8142,-49.6186"/>
<text text-anchor="start" x="475" y="-72" font-family="Helvetica,sans-Serif" font-size="10.00" fill="#000000">HEAT_REG = &#39;0&#39; or CURRENT_TEMP_REG &gt;= DESIRED_TEMP_REG &#160;&#160;</text>
</g>
<!-- FURNACE_COOL&#45;&gt;IDLE -->
<g id="edge9" class="edge transition">
<title>FURNACE_COOL&#45;&gt;IDLE</title>
<path fill="none" stroke="#000000" d="M669.0149,-36.619C720.2346,-40.2377 788.3299,-48.8048 806,-69 915.8659,-194.5657 821.2064,-236.0343 813,-245 811.5004,-246.6384 555.4638,-268.4021 456.4589,-276.7613"/>
<polygon fill="#000000" stroke="#000000" points="455.9522,-273.2915 446.2819,-277.62 456.5408,-280.2667 455.9522,-273.2915"/>
<text text-anchor="start" x="857" y="-154" font-family="Helvetica,sans-Serif" font-size="10.00" fill="#000000">FURNACE_HOT_REG = &#39;0&#39; &#160;&#160;</text>
</g>
</g>
</svg>
